name C:\Users\u0101727\Documents\MyRepositories\upper-imu-dc\Results\main_tracking\Case_43\FLX01_angularVelocities_groundFrame.mot
datacolumns 4
datarows 70
range 3.51000000 4.20000000
endheader 
time	radius_imu_x	radius_imu_y	radius_imu_z	
          3.51000000	          0.00086471	         -0.07700824	         -0.07926661	
          3.52000000	          0.00374459	         -0.07491596	         -0.07930090	
          3.53000000	          0.00679332	         -0.07281997	         -0.07907936	
          3.54000000	          0.00994724	         -0.07070384	         -0.07865918	
          3.55000000	          0.01314431	         -0.06854363	         -0.07810081	
          3.56000000	          0.01632825	         -0.06630309	         -0.07746668	
          3.57000000	          0.01945211	         -0.06393022	         -0.07682027	
          3.58000000	          0.02248100	         -0.06135576	         -0.07622580	
          3.59000000	          0.02539348	         -0.05849413	         -0.07574810	
          3.60000000	          0.02818149	         -0.05524681	         -0.07545298	
          3.61000000	          0.03084902	         -0.05150783	         -0.07540760	
          3.62000000	          0.03340955	         -0.04717060	         -0.07568114	
          3.63000000	          0.03588297	         -0.04213485	         -0.07634518	
          3.64000000	          0.03829242	         -0.03631276	         -0.07747401	
          3.65000000	          0.04066121	         -0.02963344	         -0.07914432	
          3.66000000	          0.04301017	         -0.02204561	         -0.08143458	
          3.67000000	          0.04535550	         -0.01351867	         -0.08442401	
          3.68000000	          0.04770726	         -0.00404257	         -0.08819129	
          3.69000000	          0.05006881	          0.00637281	         -0.09281297	
          3.70000000	          0.05243706	          0.01769892	         -0.09836161	
          3.71000000	          0.05480331	          0.02989005	         -0.10490394	
          3.72000000	          0.05715429	          0.04288532	         -0.11249903	
          3.73000000	          0.05947299	          0.05661081	         -0.12119692	
          3.74000000	          0.06173930	          0.07098224	         -0.13103750	
          3.75000000	          0.06393058	          0.08590864	         -0.14204952	
          3.76000000	          0.06602242	          0.10129731	         -0.15424977	
          3.77000000	          0.06798957	          0.11705950	         -0.16764252	
          3.78000000	          0.06980714	          0.13311538	         -0.18221947	
          3.79000000	          0.07145173	          0.14939712	         -0.19796031	
          3.80000000	          0.07290259	          0.16584971	         -0.21483397	
          3.81000000	          0.07414244	          0.18243045	         -0.23280021	
          3.82000000	          0.07515801	          0.19910806	         -0.25181124	
          3.83000000	          0.07594062	          0.21586244	         -0.27181313	
          3.84000000	          0.07648710	          0.23268497	         -0.29274700	
          3.85000000	          0.07680090	          0.24957859	         -0.31454996	
          3.86000000	          0.07689338	          0.26655681	         -0.33715605	
          3.87000000	          0.07678459	          0.28364104	         -0.36049736	
          3.88000000	          0.07650380	          0.30085695	         -0.38450520	
          3.89000000	          0.07608965	          0.31823041	         -0.40911114	
          3.90000000	          0.07559018	          0.33578379	         -0.43424780	
          3.91000000	          0.07506250	          0.35353329	         -0.45984955	
          3.92000000	          0.07457238	          0.37148815	         -0.48585307	
          3.93000000	          0.07419380	          0.38965161	         -0.51219765	
          3.94000000	          0.07400861	          0.40802244	         -0.53882509	
          3.95000000	          0.07410599	          0.42659593	         -0.56567912	
          3.96000000	          0.07458145	          0.44536324	         -0.59270473	
          3.97000000	          0.07553487	          0.46430901	         -0.61984751	
          3.98000000	          0.07706756	          0.48340754	         -0.64705316	
          3.99000000	          0.07927853	          0.50261855	         -0.67426682	
          4.00000000	          0.08226053	          0.52188388	         -0.70143224	
          4.01000000	          0.08609647	          0.54112636	         -0.72849042	
          4.02000000	          0.09085668	          0.56025171	         -0.75537822	
          4.03000000	          0.09659744	          0.57915292	         -0.78202693	
          4.04000000	          0.10336109	          0.59771681	         -0.80836102	
          4.05000000	          0.11117762	          0.61583169	         -0.83429737	
          4.06000000	          0.12006758	          0.63339545	         -0.85974484	
          4.07000000	          0.13004556	          0.65032258	         -0.88460464	
          4.08000000	          0.14112323	          0.66654888	         -0.90877176	
          4.09000000	          0.15331098	          0.68203247	         -0.93213776	
          4.10000000	          0.16661797	          0.69675104	         -0.95459496	
          4.11000000	          0.18105057	          0.71069553	         -0.97604193	
          4.12000000	          0.19660988	          0.72386134	         -0.99638962	
          4.13000000	          0.21328874	          0.73623893	         -1.01556747	
          4.14000000	          0.23106901	          0.74780576	         -1.03352849	
          4.15000000	          0.24991934	          0.75852104	         -1.05025271	
          4.16000000	          0.26979328	          0.76832303	         -1.06574884	
          4.17000000	          0.29062738	          0.77712785	         -1.08005425	
          4.18000000	          0.31233886	          0.78482914	         -1.09323354	
          4.19000000	          0.33482337	          0.79129891	         -1.10537602	
          4.20000000	          0.35795328	          0.79639132	         -1.11659196	
